<svg width="50" height="50" viewBox="0 0 50 50" fill="none" xmlns="http://www.w3.org/2000/svg">
<path d="M0 16C0 7.16344 7.16344 0 16 0H34C42.8366 0 50 7.16344 50 16V34C50 42.8366 42.8366 50 34 50H16C7.16344 50 0 42.8366 0 34V16Z" fill="#273C97"/>
<path d="M25 12.9387C27.7667 12.9385 30.4649 13.799 32.7206 15.4009C34.9763 17.0027 36.6779 19.2666 37.5895 21.8787C38.5011 24.4909 38.5776 27.3219 37.8083 29.9795C37.039 32.637 35.4621 34.9894 33.296 36.7107C33.0602 36.898 32.7679 37 32.4667 37H17.5334C17.2322 37 16.9399 36.898 16.704 36.7107C14.538 34.9894 12.9611 32.637 12.1918 29.9795C11.4225 27.3219 11.499 24.4909 12.4106 21.8787C13.3222 19.2666 15.0238 17.0027 17.2795 15.4009C19.5352 13.799 22.2334 12.9385 25 12.9387ZM30.6094 20.724C30.3593 20.474 30.0203 20.3336 29.6667 20.3336C29.3132 20.3336 28.9741 20.474 28.724 20.724L25.6894 23.756C25.3071 23.6543 24.9069 23.6389 24.5179 23.7108C24.1289 23.7827 23.7607 23.9401 23.4399 24.1717C23.1192 24.4032 22.8539 24.7032 22.6632 25.0498C22.4725 25.3964 22.3612 25.7811 22.3374 26.176L22.3334 26.3333C22.3341 26.7125 22.4156 27.0871 22.5725 27.4322C22.7295 27.7773 22.9582 28.085 23.2434 28.3348C23.5287 28.5845 23.8639 28.7706 24.2267 28.8805C24.5896 28.9904 24.9717 29.0218 25.3476 28.9723C25.7235 28.9229 26.0845 28.7939 26.4066 28.594C26.7287 28.394 27.0045 28.1276 27.2155 27.8126C27.4265 27.4977 27.5679 27.1413 27.6303 26.7673C27.6927 26.3934 27.6747 26.0104 27.5774 25.644L30.6094 22.6093C30.8593 22.3593 30.9998 22.0202 30.9998 21.6667C30.9998 21.3131 30.8593 20.974 30.6094 20.724Z" fill="white"/>
</svg>
